<svg width="34" height="34" viewBox="0 0 34 34" fill="none" xmlns="http://www.w3.org/2000/svg">
<path d="M14.1667 31.3333C12.2069 31.3333 10.3653 30.9615 8.64167 30.2177C6.91806 29.474 5.41875 28.4646 4.14375 27.1896C2.86875 25.9146 1.85937 24.4153 1.11562 22.6917C0.371875 20.9681 0 19.1264 0 17.1667C0 15.2069 0.371875 13.3653 1.11562 11.6417C1.85937 9.91806 2.86875 8.41875 4.14375 7.14375C5.41875 5.86875 6.91806 4.85937 8.64167 4.11562C10.3653 3.37187 12.2069 3 14.1667 3C15.7014 3 17.1535 3.22431 18.5229 3.67292C19.8924 4.12153 21.1556 4.74722 22.3125 5.55L20.2583 7.63958C19.3611 7.07292 18.4049 6.63021 17.3896 6.31146C16.3743 5.99271 15.3 5.83333 14.1667 5.83333C11.0264 5.83333 8.35243 6.93715 6.14479 9.14479C3.93715 11.3524 2.83333 14.0264 2.83333 17.1667C2.83333 20.3069 3.93715 22.9809 6.14479 25.1885C8.35243 27.3962 11.0264 28.5 14.1667 28.5C14.9222 28.5 15.6542 28.4292 16.3625 28.2875C17.0708 28.1458 17.7556 27.9451 18.4167 27.6854L20.5417 29.8458C19.5736 30.3181 18.5583 30.684 17.4958 30.9437C16.4333 31.2035 15.3236 31.3333 14.1667 31.3333ZM24.0833 28.5V24.25H19.8333V21.4167H24.0833V17.1667H26.9167V21.4167H31.1667V24.25H26.9167V28.5H24.0833ZM12.1833 23.6833L6.1625 17.6625L8.14583 15.6792L12.1833 19.7167L26.35 5.51458L28.3333 7.49792L12.1833 23.6833Z" fill="#E8EAED"/>
</svg>
